HIERARCHY
ROOT SpineBase
{
  OFFSET 0.000000 0.000000 0.000000
  CHANNELS 6 Xposition Yposition Zposition Zrotation Xrotation Yrotation
  JOINT SpineMid
  {
    OFFSET 0.000000 19.997454 0.000000
    CHANNELS 3 Zrotation Xrotation Yrotation
    JOINT SpineShoulder
    {
      OFFSET 0.057037 14.481651 -0.458678
      CHANNELS 3 Zrotation Xrotation Yrotation
      JOINT Neck
      {
        OFFSET -0.183320 4.544063 -0.530605
        CHANNELS 3 Zrotation Xrotation Yrotation
        JOINT Head
        {
          OFFSET -3.875627 14.136274 0.892726
          CHANNELS 3 Zrotation Xrotation Yrotation
          End Site
          {
            OFFSET 0 0 0
          }
        }
      }
      JOINT ShoulderLeft
      {
        OFFSET -13.054603 5.203411 13.168248
        CHANNELS 3 Zrotation Xrotation Yrotation
        JOINT ElbowLeft
        {
          OFFSET -21.200530 -12.330369 5.834040
          CHANNELS 3 Zrotation Xrotation Yrotation
          JOINT WristLeft
          {
            OFFSET 15.813316 9.200843 -2.389684
            CHANNELS 3 Zrotation Xrotation Yrotation
            JOINT HandLeft
            {
              OFFSET 3.731248 0.742011 -4.176236
              CHANNELS 3 Zrotation Xrotation Yrotation
              JOINT HandTipLeft
              {
                OFFSET 2.853688 2.124047 -3.665898
                CHANNELS 3 Zrotation Xrotation Yrotation
                End Site
                {
                  OFFSET 0 0 0
                }
              }
              JOINT ThumbLeft
              {
                OFFSET -2.034448 5.126547 -1.164592
                CHANNELS 3 Zrotation Xrotation Yrotation
                End Site
                {
                  OFFSET 0 0 0
                }
              }
            }
          }
        }
      }
      JOINT ShoulderRight
      {
        OFFSET -16.756772 0.579944 12.679458
        CHANNELS 3 Zrotation Xrotation Yrotation
        JOINT ElbowRight
        {
          OFFSET 10.883509 3.411591 -23.319618
          CHANNELS 3 Zrotation Xrotation Yrotation
          JOINT WristRight
          {
            OFFSET 4.874026 -18.637816 -17.102954
            CHANNELS 3 Zrotation Xrotation Yrotation
            JOINT HandRight
            {
              OFFSET 1.685435 -5.659860 -2.649382
              CHANNELS 3 Zrotation Xrotation Yrotation
              JOINT HandTipRight
              {
                OFFSET -3.750622 -4.514198 -2.430644
                CHANNELS 3 Zrotation Xrotation Yrotation
                End Site
                {
                  OFFSET 0 0 0
                }
              }
              JOINT ThumbRight
              {
                OFFSET 3.064760 -2.544614 3.427652
                CHANNELS 3 Zrotation Xrotation Yrotation
                End Site
                {
                  OFFSET 0 0 0
                }
              }
            }
          }
        }
      }
    }
  }
  JOINT HipLeft
  {
    OFFSET 3.726908 1.052132 -1.692750
    CHANNELS 3 Zrotation Xrotation Yrotation
    JOINT KneeLeft
    {
      OFFSET -36.257806 -6.071074 0.072959
      CHANNELS 3 Zrotation Xrotation Yrotation
      JOINT AnkleLeft
      {
        OFFSET 30.771612 -2.595652 18.865492
        CHANNELS 3 Zrotation Xrotation Yrotation
        JOINT FootLeft
        {
          OFFSET -7.469563 -9.442486 2.333442
          CHANNELS 3 Zrotation Xrotation Yrotation
          End Site
          {
            OFFSET 0 0 0
          }
        }
      }
    }
  }
  JOINT HipRight
  {
    OFFSET -4.391271 -2.928741 -3.256257
    CHANNELS 3 Zrotation Xrotation Yrotation
    JOINT KneeRight
    {
      OFFSET -11.490500 -1.293078 -27.579729
      CHANNELS 3 Zrotation Xrotation Yrotation
      JOINT AnkleRight
      {
        OFFSET -3.897184 -18.487854 18.875286
        CHANNELS 3 Zrotation Xrotation Yrotation
        JOINT FootRight
        {
          OFFSET 5.230225 7.148310 -2.082166
          CHANNELS 3 Zrotation Xrotation Yrotation
          End Site
          {
            OFFSET 0 0 0
          }
        }
      }
    }
  }
}
MOTION
Frames: 10
Frame Time: 0.033333
83.332416 23.160831 398.885411 3.537694 -6.581407 152.511181 -1.213591 0.663569 -152.143030 -0.490087 8.286603 0.055602 -14.349197 -14.924317 -5.408197 0.000000 0.000000 0.000000 -1.702023 -1.524183 2.306424 -6.611127 8.799020 -15.708434 -2.205328 -19.504540 8.053872 13.066710 12.460406 5.491111 0.000000 0.000000 0.000000 0.000000 0.000000 0.000000 -5.583796 -4.037151 -1.284392 4.459916 8.764177 -0.731312 5.396331 12.740724 1.779230 -2.591126 -19.665960 -2.475719 0.000000 0.000000 0.000000 0.000000 0.000000 0.000000 6.595201 -7.050581 -169.032459 -0.148310 -2.888706 16.987136 -2.600732 -7.444165 4.914667 0.000000 0.000000 0.000000 6.057026 -4.360121 -157.130701 -8.796398 -4.731280 -3.259662 -8.787115 10.929735 -0.027586 0.000000 0.000000 0.000000
83.363141 23.145087 397.686790 3.965772 -4.487099 152.558680 -0.864742 0.618874 -152.222642 -0.778573 7.864831 0.147186 -15.216080 -18.188807 -6.575179 0.000000 0.000000 0.000000 -1.993495 -3.252019 1.768696 -6.237151 6.668240 -12.187825 -1.839544 -14.895359 5.378334 12.116468 11.825977 5.797891 0.000000 0.000000 0.000000 0.000000 0.000000 0.000000 -5.603964 -6.217321 -1.327949 4.959274 9.551920 -1.141917 5.573885 13.972518 2.054828 -2.597952 -19.872727 -4.250712 0.000000 0.000000 0.000000 0.000000 0.000000 0.000000 6.814032 -4.321192 -167.011256 0.702909 -2.396521 14.796359 -1.509872 -7.772672 5.527547 0.000000 0.000000 0.000000 5.625279 -2.457943 -157.155574 -10.273955 -4.959620 -5.050493 -11.416178 14.913359 -1.189936 0.000000 0.000000 0.000000
82.715966 22.974417 395.723976 3.033382 -1.709256 149.927706 -0.970707 0.421752 -149.739680 -1.011025 6.257659 0.209875 -14.672886 -20.042000 -7.089242 0.000000 0.000000 0.000000 -1.597444 -4.288461 1.099819 -5.099901 3.842758 -7.470441 -0.688654 -8.612124 2.469988 10.614676 9.611094 7.101034 0.000000 0.000000 0.000000 0.000000 0.000000 0.000000 -4.900127 -8.054440 -1.390369 5.244138 10.062417 -1.184969 6.539993 14.390922 1.643567 -3.514949 -19.094617 -5.082820 0.000000 0.000000 0.000000 0.000000 0.000000 0.000000 5.616597 -1.365702 -162.729361 1.650636 -2.140772 10.897460 5.131135 -5.866700 8.514939 0.000000 0.000000 0.000000 3.024094 0.139518 -154.917923 -12.155724 -4.628637 -6.379946 -15.140249 22.305542 -3.498662 0.000000 0.000000 0.000000
82.607385 22.587029 394.565599 2.519906 -0.728518 148.087216 -0.739213 -0.482615 -147.969747 -1.088335 4.494536 0.228358 -13.833651 -19.545000 -6.739410 0.000000 0.000000 0.000000 -2.332751 -3.765533 -0.499580 -2.676740 0.364111 -1.262906 0.531710 -2.474870 -0.192226 6.233774 5.157895 4.714852 0.000000 0.000000 0.000000 0.000000 0.000000 0.000000 -4.536162 -8.106385 -1.292338 5.057865 9.936432 -1.090866 7.030107 12.837393 1.064915 -5.159013 -15.702283 -5.737158 0.000000 0.000000 0.000000 0.000000 0.000000 0.000000 5.484205 -0.291545 -161.157137 2.574195 -2.217401 9.516746 8.313937 -3.668659 9.678413 0.000000 0.000000 0.000000 2.491762 0.520266 -152.092451 -11.822820 -5.161248 -7.268040 -16.279015 25.501972 -4.936115 0.000000 0.000000 0.000000
82.353185 22.310861 392.973479 1.299307 0.806840 148.660584 -1.296137 -1.210760 -148.583662 -1.542101 1.903553 0.166448 -11.544041 -17.038720 -5.509643 0.000000 0.000000 0.000000 -1.506797 -3.060270 -0.338820 -0.953061 -1.001240 1.441043 0.513331 -0.552132 3.429364 3.447960 2.929460 -2.344218 0.000000 0.000000 0.000000 0.000000 0.000000 0.000000 -3.399443 -6.825320 -1.009736 4.446392 8.980812 -0.858908 7.271721 10.801920 0.445445 -3.761774 -16.008788 -3.071990 0.000000 0.000000 0.000000 0.000000 0.000000 0.000000 4.715452 1.257090 -159.849598 2.844605 -1.428002 7.152668 10.584213 -1.482581 8.302631 0.000000 0.000000 0.000000 1.342044 0.691674 -151.815096 -8.178560 -4.851854 -4.995147 -12.684018 22.450365 -6.940897 0.000000 0.000000 0.000000
81.870912 22.247971 392.703602 -0.046644 -0.002382 142.128450 -1.015664 -2.276599 -142.084608 -2.153954 -1.168978 -0.085568 -8.523369 -11.567464 -3.603348 0.000000 0.000000 0.000000 -0.176084 -0.698632 1.110666 -3.639958 1.790733 -3.644088 2.588524 -3.510300 6.857809 2.853606 2.750678 -2.701984 0.000000 0.000000 0.000000 0.000000 0.000000 0.000000 -1.594374 -3.180613 -0.643274 3.755445 7.669925 -0.491307 7.721977 7.944182 -0.511256 -3.963967 -12.120362 -2.342522 0.000000 0.000000 0.000000 0.000000 0.000000 0.000000 4.328171 0.644623 -152.832345 3.306817 -1.299423 7.180233 11.067747 0.503529 6.166887 0.000000 0.000000 0.000000 0.937978 -0.710783 -144.223378 -4.287542 -4.360598 -2.209552 -9.175190 20.102529 -9.281186 0.000000 0.000000 0.000000
81.614025 22.308499 390.749925 -0.828192 3.402555 145.684280 -2.185534 -1.336155 -145.568079 -2.031548 -0.245475 -0.013385 -7.852544 -14.309493 -4.010568 0.000000 0.000000 0.000000 0.137185 -3.729559 1.043780 -4.457127 2.058851 -4.199100 3.675466 -3.487206 7.908981 0.769661 1.534719 -4.558440 0.000000 0.000000 0.000000 0.000000 0.000000 0.000000 -0.949785 -5.507974 -0.612504 3.314405 7.161331 -0.458631 8.151323 6.711594 -0.960164 -5.524844 -9.192344 -3.216489 0.000000 0.000000 0.000000 0.000000 0.000000 0.000000 2.037501 3.459437 -154.055481 2.183148 -0.143185 4.970265 12.057413 -1.950133 7.282900 0.000000 0.000000 0.000000 -1.311958 1.443431 -146.528575 -0.300277 -2.672642 0.197520 -5.172471 13.769809 -9.473019 0.000000 0.000000 0.000000
81.015404 21.863644 391.718178 -1.840106 1.626626 148.315236 -1.591099 -2.092118 -148.258842 -1.566796 2.121183 0.051405 -7.007491 -16.579026 -4.402475 0.000000 0.000000 0.000000 1.017797 -5.265682 0.984264 -5.532921 2.106017 -4.504862 4.916349 -3.464646 9.851599 -3.056738 -0.359132 -8.483916 0.000000 0.000000 0.000000 0.000000 0.000000 0.000000 0.017973 -6.611290 -0.298597 3.006828 7.186990 -0.530667 8.676333 10.140698 -0.488009 -6.774525 -12.228646 -4.873088 0.000000 0.000000 0.000000 0.000000 0.000000 0.000000 2.537531 1.703123 -155.594314 1.963405 0.445326 5.903054 10.207272 -3.642333 5.418068 0.000000 0.000000 0.000000 -0.450479 -1.171919 -150.451636 1.486686 -2.941600 2.897822 -3.578256 6.181704 -5.411674 0.000000 0.000000 0.000000
79.927293 21.836939 391.933299 -3.333692 1.512869 149.494952 -2.129993 -2.705402 -149.437306 -0.973144 2.733301 0.111877 -8.264456 -18.706833 -5.227267 0.000000 0.000000 0.000000 1.387670 -5.893169 0.813156 -5.362198 1.654843 -3.860079 4.307044 -3.279370 8.546058 -4.693312 -1.465739 -8.781570 0.000000 0.000000 0.000000 0.000000 0.000000 0.000000 0.015072 -7.637922 -0.537810 3.187497 7.791519 -0.314414 9.597605 12.709293 -0.402093 -7.786144 -14.232558 -6.294227 0.000000 0.000000 0.000000 0.000000 0.000000 0.000000 1.053918 0.590026 -156.950256 2.290861 0.231330 9.247737 4.183270 -5.083649 1.695415 0.000000 0.000000 0.000000 -2.171256 -1.846904 -154.105357 3.770629 -0.453508 7.802134 -1.047607 0.364718 -3.592349 0.000000 0.000000 0.000000
79.240293 21.941804 392.217432 -3.328938 1.224161 151.105319 -1.494872 -1.806178 -151.089594 -1.109575 3.278636 0.042149 -7.937263 -18.865149 -5.249589 0.000000 0.000000 0.000000 2.837149 -5.527073 0.773858 -4.611662 1.034775 -2.849132 3.254270 -2.600666 6.312954 -7.129514 -3.278329 -9.048169 0.000000 0.000000 0.000000 0.000000 0.000000 0.000000 0.868040 -8.067747 -0.721077 3.676234 8.094026 -0.277273 9.219550 12.793215 -0.187864 -6.924781 -14.923818 -5.686027 0.000000 0.000000 0.000000 0.000000 0.000000 0.000000 0.287277 -0.558446 -160.505026 2.460862 -0.786112 10.211456 0.678633 -7.808469 4.735384 0.000000 0.000000 0.000000 -2.669822 -1.675951 -157.795284 2.420910 -0.926524 8.900278 -1.261152 1.680667 -3.261512 0.000000 0.000000 0.000000
